<?xml version="1.0" standalone="no"?>
<!DOCTYPE svg PUBLIC "-//W3C//DTD SVG 20010904//EN"
 "http://www.w3.org/TR/2001/REC-SVG-20010904/DTD/svg10.dtd">
<svg version="1.0" xmlns="http://www.w3.org/2000/svg"
 width="500.000000pt" height="500.000000pt" viewBox="0 0 500.000000 500.000000"
 preserveAspectRatio="xMidYMid meet">
<metadata>
Created by potrace 1.16, written by Peter Selinger 2001-2019
</metadata>
<g transform="translate(0.000000,500.000000) scale(0.100000,-0.100000)"
fill="#FFFFFF" stroke="none">
<path d="M2255 4449 c-438 -58 -860 -249 -1167 -528 -290 -262 -510 -603 -614
-949 -22 -72 -31 -92 -49 -96 -44 -11 -102 -64 -129 -117 l-26 -53 0 -363 c0
-408 0 -406 72 -480 78 -79 206 -95 304 -38 62 37 70 57 51 141 -46 204 -48
510 -6 723 l22 114 -32 29 -32 28 31 93 c90 270 295 591 499 779 530 491 1257
652 1934 428 125 -42 331 -144 452 -225 359 -241 612 -573 755 -992 l42 -123
-31 -35 c-21 -25 -30 -43 -26 -58 34 -156 48 -361 35 -521 -9 -112 -16 -159
-35 -253 -6 -28 35 -78 85 -103 58 -30 110 -34 174 -16 66 20 117 61 145 120
20 40 21 59 21 377 0 190 -4 349 -10 370 -13 47 -69 111 -117 133 -38 17 -40
20 -82 151 -102 316 -287 620 -515 849 -319 318 -699 516 -1151 598 -126 23
-481 33 -600 17z"/>
<path d="M2265 4130 c-107 -15 -281 -58 -382 -96 -257 -96 -463 -227 -651
-414 -288 -287 -455 -618 -518 -1025 -13 -86 -15 -150 -11 -295 9 -307 55
-497 188 -765 264 -533 765 -894 1362 -980 143 -21 424 -16 562 9 905 166
1541 975 1484 1886 -56 869 -713 1572 -1569 1679 -96 12 -375 12 -465 1z
m-117 -1286 l22 -15 0 -539 c0 -476 -2 -540 -16 -554 -18 -19 -55 -21 -72 -4
-9 9 -12 145 -12 552 0 488 2 541 17 558 20 22 32 23 61 2z m772 -4 c19 -19
20 -33 20 -552 0 -480 -2 -533 -17 -550 -22 -25 -59 -23 -77 4 -14 20 -16 89
-16 550 0 515 1 529 20 548 11 11 27 20 35 20 8 0 24 -9 35 -20z m-950 -149
c6 -13 10 -159 10 -407 0 -346 -2 -389 -17 -406 -22 -25 -59 -23 -77 4 -14 19
-16 75 -16 410 0 338 2 389 16 402 22 23 71 20 84 -3z m378 7 c9 -9 12 -114
12 -409 0 -348 -2 -400 -16 -413 -20 -20 -48 -20 -68 0 -14 13 -16 65 -16 413
0 295 3 400 12 409 7 7 24 12 38 12 14 0 31 -5 38 -12z m384 -5 c17 -15 18
-41 18 -402 0 -334 -2 -390 -16 -409 -18 -26 -50 -28 -76 -5 -17 15 -18 41
-18 405 0 249 4 396 10 409 13 24 57 25 82 2z m386 5 c9 -9 12 -113 12 -408 0
-386 -1 -397 -20 -415 -16 -15 -26 -17 -48 -9 l-27 9 -3 404 c-1 290 1 408 9
417 14 17 61 18 77 2z m-1352 -192 c17 -13 19 -30 22 -206 4 -210 -3 -240 -53
-240 -51 0 -55 15 -55 230 0 194 1 199 22 214 28 20 39 20 64 2z m765 4 c18
-10 19 -23 19 -218 0 -149 -3 -211 -12 -220 -19 -19 -66 -15 -78 7 -6 12 -10
99 -10 212 0 165 2 195 17 211 18 20 36 23 64 8z m771 -7 c16 -15 18 -35 18
-218 0 -215 -2 -225 -50 -225 -48 0 -50 10 -50 224 0 172 2 202 17 218 20 22
41 23 65 1z m-1730 -100 c15 -14 18 -32 18 -118 0 -110 -6 -125 -52 -125 -39
0 -48 25 -48 131 0 72 4 96 17 111 20 22 41 23 65 1z m1919 7 c17 -10 19 -22
19 -118 0 -114 -6 -132 -46 -132 -44 0 -54 24 -54 130 0 91 2 100 22 114 26
19 33 19 59 6z"/>
</g>
</svg>
