<?xml version="1.0" standalone="no"?>
<!DOCTYPE svg PUBLIC "-//W3C//DTD SVG 20010904//EN"
 "http://www.w3.org/TR/2001/REC-SVG-20010904/DTD/svg10.dtd">
<svg version="1.0" xmlns="http://www.w3.org/2000/svg"
 width="512.000000pt" height="512.000000pt" viewBox="0 0 512.000000 512.000000"
 preserveAspectRatio="xMidYMid meet">

<g transform="translate(0.000000,512.000000) scale(0.100000,-0.100000)"
fill="#000000" stroke="none">
<path d="M2479 3557 c-19 -12 -44 -42 -56 -67 -23 -44 -23 -48 -23 -472 l0
-429 -30 16 c-60 31 -135 10 -170 -48 -17 -27 -20 -51 -20 -159 0 -70 -4 -138
-9 -151 -14 -36 -48 -44 -75 -18 -20 20 -21 34 -26 231 l-5 209 -30 31 c-62
65 -154 63 -214 -5 -26 -30 -31 -44 -31 -88 0 -29 -3 -76 -7 -106 -5 -45 -10
-56 -37 -72 -17 -10 -39 -19 -48 -19 -17 0 -18 23 -18 338 0 317 -1 339 -20
369 -53 88 -200 88 -247 0 -16 -28 -19 -70 -23 -329 l-5 -298 -31 19 c-22 14
-34 31 -43 62 -12 49 -24 67 -61 92 -27 19 -91 22 -121 7 -16 -9 -25 -5 -54
25 -32 31 -41 35 -89 35 -62 0 -100 -24 -122 -76 -19 -45 -19 -233 0 -278 39
-94 170 -113 230 -33 19 26 25 50 31 122 8 98 16 115 50 115 41 0 48 -23 54
-178 7 -175 13 -188 100 -228 l59 -27 4 -82 c5 -99 26 -135 93 -160 62 -24
109 -13 157 35 l38 38 0 161 0 161 28 6 c79 17 140 61 161 117 6 16 11 64 11
108 0 96 10 119 50 119 19 0 33 -7 40 -19 6 -12 10 -98 10 -211 0 -215 7 -244
65 -280 42 -26 119 -27 161 -1 53 32 64 72 64 223 0 118 2 137 18 151 29 27
48 20 81 -28 l30 -45 3 -382 c3 -346 5 -386 21 -416 26 -48 72 -72 135 -72 66
0 103 20 131 70 21 38 21 43 21 937 l0 900 -23 34 c-45 68 -143 90 -208 46z
m128 -107 c10 -19 13 -214 13 -883 l0 -858 -25 -24 c-35 -36 -60 -32 -84 12
-8 16 -11 253 -11 880 0 770 2 861 16 881 22 32 74 27 91 -8z m-1035 -377 c17
-15 18 -45 18 -533 0 -507 0 -517 -20 -535 -16 -15 -26 -17 -48 -9 l-27 9 -7
505 c-4 278 -5 516 -2 530 11 51 50 66 86 33z m-547 -465 c3 -13 5 -63 3 -112
-2 -72 -6 -91 -20 -100 -13 -8 -23 -8 -35 0 -15 9 -19 29 -21 109 -1 54 0 105
2 112 3 7 19 13 35 13 23 0 32 -5 36 -22z m363 -222 c16 -11 12 -118 -4 -123
-6 -2 -23 6 -37 17 -24 19 -27 28 -27 81 l0 59 28 -12 c15 -7 33 -16 40 -22z"/>
<path d="M3506 3167 c-75 -43 -76 -48 -76 -429 0 -367 1 -360 -54 -317 -25 20
-26 25 -26 117 0 122 -20 171 -84 201 -53 26 -79 26 -131 1 -73 -35 -79 -57
-85 -286 -4 -180 -7 -204 -24 -223 -24 -26 -60 -27 -86 -1 -19 19 -20 33 -20
464 0 424 -1 445 -19 467 -19 23 -21 23 -48 9 l-28 -16 0 -471 c0 -461 0 -472
21 -499 54 -73 145 -94 218 -52 74 43 81 66 84 293 4 211 9 235 53 235 36 0
46 -25 52 -134 9 -144 23 -169 125 -220 l52 -26 0 -138 c0 -155 10 -190 69
-229 67 -45 171 -20 207 50 9 17 19 62 23 100 l6 69 39 13 c55 19 88 45 108
86 16 29 18 64 18 257 0 209 1 223 20 242 23 23 31 24 52 8 14 -11 17 -41 20
-183 2 -143 6 -175 21 -198 55 -85 177 -87 227 -4 18 28 20 51 20 193 0 165
-4 184 -41 184 -42 0 -49 -25 -49 -166 0 -75 -5 -144 -10 -155 -12 -22 -42
-25 -58 -6 -6 7 -12 84 -14 177 -2 138 -6 171 -21 193 -24 36 -74 60 -125 59
-50 0 -85 -21 -112 -65 -18 -29 -20 -52 -20 -253 0 -205 -1 -223 -20 -246 -11
-14 -28 -28 -39 -31 -29 -7 -32 32 -25 418 8 390 3 443 -44 488 -54 51 -114
60 -176 24z m112 -89 c7 -7 12 -30 12 -52 0 -37 -5 -46 -49 -83 -28 -24 -52
-43 -55 -43 -3 0 -6 33 -6 73 0 85 16 117 59 117 15 0 32 -5 39 -12z m22 -266
c0 -27 -6 -55 -12 -63 -13 -15 -93 -69 -103 -69 -3 0 -5 17 -5 39 0 33 7 45
51 90 29 28 56 51 60 51 5 0 9 -22 9 -48z m-9 -626 c-5 -164 -8 -180 -26 -192
-27 -18 -66 1 -76 36 -4 14 -7 138 -8 277 l-1 252 53 39 52 39 6 -136 c4 -75
4 -216 0 -315z"/>
</g>
</svg>
