<?xml version="1.0" standalone="no"?>
<!DOCTYPE svg PUBLIC "-//W3C//DTD SVG 20010904//EN"
 "http://www.w3.org/TR/2001/REC-SVG-20010904/DTD/svg10.dtd">
<svg version="1.0" xmlns="http://www.w3.org/2000/svg"
 width="500.000000pt" height="500.000000pt" viewBox="0 0 500.000000 500.000000"
 preserveAspectRatio="xMidYMid meet">
<metadata>
Created by potrace 1.14, written by Peter Selinger 2001-2017
</metadata>
<g transform="translate(0.000000,500.000000) scale(0.100000,-0.100000)"
fill="#000000" stroke="none">
<path d="M2377 3694 c-2 -2 -24 -5 -49 -7 -24 -2 -50 -7 -56 -11 -7 -4 -12 -5
-12 -2 0 7 -170 -40 -222 -62 -25 -11 -49 -18 -52 -15 -3 4 -6 1 -6 -5 0 -7
-9 -12 -20 -12 -11 0 -20 -5 -20 -12 0 -6 -3 -9 -6 -5 -10 9 -174 -91 -249
-153 -81 -66 -255 -257 -255 -278 0 -6 -3 -12 -7 -14 -28 -12 -156 -284 -167
-354 -3 -18 -27 -44 -40 -44 -6 0 -21 -11 -32 -23 -44 -46 -49 -80 -48 -302 0
-228 7 -260 60 -298 62 -45 158 -35 200 22 8 10 9 23 2 40 -33 88 -28 474 7
509 3 3 -5 16 -16 28 -22 23 -22 24 -4 81 10 32 20 63 24 68 3 6 6 12 7 15 0
3 7 19 14 35 7 17 13 33 12 38 -1 4 3 7 8 7 6 0 10 6 10 14 0 8 3 16 8 18 4 2
18 23 31 47 23 43 41 67 69 96 6 8 12 17 12 20 0 13 164 171 220 212 59 44
130 89 143 91 4 1 31 14 59 28 29 15 77 35 108 46 52 18 69 23 115 33 11 3 31
7 45 11 83 19 296 26 390 12 25 -4 61 -9 81 -12 86 -14 331 -111 351 -140 5
-7 8 -7 8 -1 0 7 3 7 8 0 4 -6 26 -23 50 -38 63 -41 78 -54 172 -147 81 -81
120 -125 120 -135 0 -3 8 -14 18 -25 32 -38 127 -210 115 -210 -3 0 0 -6 6
-13 6 -8 8 -17 4 -20 -3 -4 0 -7 7 -7 7 0 10 -3 7 -7 -4 -3 -3 -11 2 -17 4 -6
13 -33 20 -60 10 -40 9 -51 -2 -65 -19 -22 -28 -49 -17 -53 16 -5 34 -297 21
-323 -3 -5 -6 -19 -7 -30 0 -11 -4 -43 -8 -70 -6 -45 -5 -53 16 -72 21 -19 81
-40 101 -35 4 1 15 4 25 5 30 5 60 26 83 59 22 30 23 41 24 235 1 120 -3 215
-9 232 -15 39 -51 82 -73 85 -12 2 -27 32 -53 107 -30 86 -88 208 -135 287
-60 100 -247 299 -337 357 -8 6 -35 23 -59 39 -110 74 -336 165 -447 180 -24
3 -48 8 -53 12 -11 6 -316 14 -322 8z"/>
<path d="M2488 3555 c-2 -1 -41 -6 -88 -9 -91 -8 -107 -10 -130 -19 -8 -3 -55
-17 -105 -32 -49 -15 -92 -31 -95 -36 -3 -5 -15 -10 -25 -12 -32 -5 -215 -124
-215 -139 0 -4 -5 -8 -10 -8 -14 0 -160 -151 -160 -165 0 -2 -18 -28 -40 -57
-22 -29 -40 -59 -40 -65 0 -7 -5 -13 -11 -13 -5 0 -8 -4 -4 -9 3 -5 -1 -15 -7
-23 -32 -33 -116 -236 -132 -320 -3 -16 -17 -107 -20 -130 -1 -10 -5 -20 -8
-24 -4 -3 -3 -17 3 -31 6 -15 5 -31 -1 -42 -5 -10 -7 -21 -4 -24 3 -3 7 -34 9
-69 4 -75 12 -132 25 -177 5 -17 9 -34 9 -36 1 -3 2 -7 2 -10 1 -3 2 -8 3 -12
5 -24 33 -96 56 -148 15 -33 27 -64 28 -69 0 -5 4 -12 9 -15 5 -3 20 -24 33
-46 13 -22 30 -46 37 -53 7 -7 13 -17 13 -22 0 -11 179 -191 209 -210 13 -8
29 -20 35 -25 34 -32 212 -125 269 -140 4 -2 8 -3 10 -5 1 -1 9 -3 17 -5 8 -2
44 -11 80 -20 85 -22 145 -28 255 -29 95 -1 250 14 250 24 0 1 7 3 15 5 97 20
195 59 305 124 33 19 65 40 72 46 33 28 43 35 47 35 12 0 131 119 177 176 45
57 139 207 143 229 1 5 11 30 22 55 23 50 61 193 68 255 3 22 5 40 6 40 1 0 3
12 4 28 1 15 -3 27 -9 27 -7 0 -7 3 0 8 19 13 0 231 -25 297 -5 14 -9 29 -8
33 3 10 -20 77 -47 137 -12 28 -28 65 -36 83 -8 17 -17 32 -21 32 -5 0 -8 6
-8 14 0 13 -95 166 -110 176 -4 3 -11 13 -16 22 -32 58 -195 201 -284 249 -25
13 -47 27 -50 30 -16 20 -223 92 -234 82 -3 -4 -6 -2 -6 4 0 12 -51 21 -155
29 -38 3 -78 6 -87 8 -9 2 -18 3 -20 1z"/>
</g>
</svg>
