<?xml version="1.0" standalone="no"?>
<!DOCTYPE svg PUBLIC "-//W3C//DTD SVG 20010904//EN"
 "http://www.w3.org/TR/2001/REC-SVG-20010904/DTD/svg10.dtd">
<svg version="1.0" xmlns="http://www.w3.org/2000/svg"
 width="512.000000pt" height="512.000000pt" viewBox="0 0 512.000000 512.000000"
 preserveAspectRatio="xMidYMid meet">
<metadata>
Created by potrace 1.14, written by Peter Selinger 2001-2017
</metadata>
<g transform="translate(0.000000,512.000000) scale(0.100000,-0.100000)"
fill="#000000" stroke="none">
<path d="M2515 3583 c-11 -3 -35 -16 -53 -30 -63 -48 -62 -37 -62 -524 l0
-442 -20 18 c-31 28 -107 25 -149 -5 -51 -36 -61 -71 -61 -223 0 -137 -5 -157
-41 -157 -10 0 -25 7 -33 16 -14 13 -16 47 -16 212 0 179 -2 200 -20 230 -59
96 -201 96 -260 0 -16 -27 -20 -51 -20 -124 0 -99 -6 -112 -63 -133 l-27 -11
0 328 c0 320 -1 329 -22 372 -31 59 -76 83 -146 77 -46 -3 -59 -9 -90 -41
l-37 -36 -3 -305 c-2 -168 -5 -305 -8 -305 -19 0 -64 45 -64 63 0 32 -35 84
-72 107 -39 24 -85 26 -115 5 -20 -14 -23 -14 -33 5 -30 56 -127 77 -187 40
-56 -34 -66 -68 -64 -215 1 -140 6 -156 64 -199 33 -24 100 -26 145 -2 51 26
72 69 72 148 0 106 28 150 70 108 18 -18 20 -34 20 -149 0 -71 4 -141 9 -154
14 -36 49 -66 108 -94 l53 -24 0 -77 c0 -85 15 -119 66 -153 39 -26 119 -25
162 1 63 39 72 67 72 236 l0 152 37 7 c51 9 86 29 116 65 35 41 47 89 47 182
0 67 3 79 20 88 14 7 26 8 39 0 19 -9 20 -24 23 -219 3 -194 5 -212 24 -238
70 -95 199 -97 256 -4 20 32 24 53 28 186 l5 150 30 0 c20 0 33 -7 41 -22 6
-13 18 -31 26 -40 14 -16 16 -68 16 -394 0 -336 2 -381 17 -413 25 -52 68 -79
134 -84 62 -4 105 17 145 71 21 28 21 33 23 930 l3 902 -23 40 c-34 62 -112
95 -182 78z m73 -119 l22 -15 0 -871 c0 -797 -1 -873 -17 -890 -20 -22 -46
-23 -67 -2 -14 14 -16 108 -16 889 l0 874 22 15 c12 9 25 16 28 16 3 0 16 -7
28 -16z m-1010 -914 c1 -378 -1 -527 -9 -536 -17 -20 -57 -17 -69 5 -6 13 -10
197 -10 530 0 508 0 510 21 525 14 9 29 12 43 7 l21 -8 3 -523z m-563 -35 l0
-110 -25 0 c-25 0 -25 1 -28 99 -3 116 0 129 30 124 22 -3 23 -6 23 -113z
m358 -122 c14 -4 17 -17 17 -64 0 -65 -8 -72 -45 -34 -19 19 -25 35 -25 71 0
40 2 45 18 39 9 -4 25 -10 35 -12z"/>
<path d="M3544 3190 c-40 -9 -77 -37 -101 -75 -16 -27 -18 -61 -21 -367 -3
-354 -5 -365 -45 -320 -13 14 -17 38 -17 96 0 42 -5 97 -11 120 -27 109 -168
157 -246 84 -53 -49 -57 -69 -63 -286 -5 -219 -6 -222 -62 -222 -50 0 -51 10
-56 490 -3 277 -8 450 -14 458 -17 20 -65 14 -82 -10 -14 -20 -16 -81 -16
-468 0 -442 0 -446 23 -490 38 -76 115 -112 195 -91 44 12 97 58 115 100 6 14
12 114 15 221 2 111 8 200 14 208 6 6 21 12 34 12 34 0 44 -33 44 -136 0 -124
28 -172 123 -214 l47 -21 0 -132 c0 -107 4 -140 19 -173 39 -86 135 -117 214
-71 57 33 77 76 77 159 l0 64 46 13 c58 17 109 65 123 116 6 23 11 127 11 251
0 217 3 234 42 234 31 0 38 -35 38 -197 0 -185 9 -210 86 -244 50 -23 91 -19
135 12 50 35 59 72 59 242 0 168 -4 180 -56 180 -44 0 -49 -15 -54 -176 l-5
-152 -25 0 -25 0 -6 165 c-6 184 -14 213 -72 249 -72 45 -171 16 -209 -59 -16
-30 -18 -66 -18 -257 l0 -222 -26 -20 c-15 -12 -31 -21 -35 -21 -5 0 -9 190
-9 423 0 401 -1 424 -20 454 -34 56 -103 86 -166 73z m76 -131 c21 -38 11 -65
-40 -108 l-51 -43 3 78 c3 71 5 80 27 90 28 14 48 9 61 -17z m-11 -320 c-13
-9 -35 -24 -51 -33 l-28 -17 0 34 c0 27 10 46 48 88 l47 53 3 -54 c3 -46 0
-56 -19 -71z m16 -706 c-8 -44 -50 -57 -77 -23 -16 20 -18 45 -18 286 l0 264
48 34 47 35 3 -282 c1 -155 0 -297 -3 -314z"/>
</g>
</svg>
